<mxfile host="app.diagrams.net" modified="2024-03-23T10:29:50.168Z" agent="Mozilla/5.0 (Windows NT 10.0; Win64; x64; rv:124.0) Gecko/20100101 Firefox/124.0" version="24.0.7" etag="fdJnT1iMz9po5o1YOHoC" type="github">
  <diagram name="Seite-1" id="C-XFB5MMmBL1i_Sq7nBm">
    <mxGraphModel>
      <root>
        <mxCell id="0" />
        <mxCell id="1" parent="0" />
      </root>
    </mxGraphModel>
  </diagram>
</mxfile>
